<svg xmlns="http://www.w3.org/2000/svg" width="44" height="59" viewBox="0 0 44 59" fill="none"><path d="M31.271 10.9453H8.26137C6.78488 10.9453 5.58398 12.1464 5.58398 13.6225V16.5395C5.58398 18.0158 6.78503 19.2169 8.26137 19.2169H31.271C32.7472 19.2169 33.9482 18.0156 33.9482 16.5395V13.6225C33.9482 12.1462 32.7472 10.9453 31.271 10.9453ZM31.7243 16.5395C31.7243 16.7895 31.5209 16.993 31.271 16.993H8.26137C8.01134 16.993 7.80786 16.7895 7.80786 16.5395V13.6225C7.80786 13.3725 8.01134 13.1692 8.26137 13.1692H31.271C31.5207 13.1692 31.7243 13.3725 31.7243 13.6225V16.5395Z" fill="#0F314C"></path><path d="M19.7654 22.6992C12.4292 22.6992 6.46094 28.6673 6.46094 36.0035C6.46094 43.3395 12.4292 49.3077 19.7654 49.3077C27.1015 49.3077 33.0699 43.3395 33.0699 36.0035C33.0699 28.6673 27.1015 22.6992 19.7654 22.6992ZM14.9965 26.0034C14.4566 26.8162 13.8663 27.8167 13.3292 28.972H11.2083C12.2341 27.726 13.5262 26.7074 14.9965 26.0034ZM8.74057 34.8916C8.87209 33.5792 9.233 32.3335 9.78324 31.1958H12.4492C12.4309 31.2518 12.412 31.3067 12.3939 31.3631C12.058 32.4188 11.7849 33.6065 11.6567 34.8916M9.7834 40.8111C9.233 39.6731 8.87225 38.4276 8.74073 37.1153H11.5922C11.6419 38.2968 11.8305 39.5355 12.21 40.8111H9.7834ZM11.2084 43.035H13.0589C13.497 43.9693 14.048 44.916 14.7283 45.8675C13.3692 45.171 12.1707 44.2042 11.2084 43.035ZM18.6535 47.0279C18.6246 47.0251 18.5961 47.0211 18.5672 47.0179C18.5237 46.9447 18.4722 46.8748 18.4106 46.8108C17.2326 45.5911 16.2801 44.3315 15.552 43.0348H18.6535V47.0279ZM18.6535 40.8111H14.5371C14.1101 39.6072 13.8666 38.3745 13.8064 37.1153H18.6535V40.8111ZM18.6535 34.8916H13.888C13.997 33.9763 14.1964 33.0485 14.4909 32.1086C14.5889 31.7963 14.6953 31.4924 14.807 31.1958H18.6535V34.8916ZM18.6535 28.972H15.8163C17.0471 26.6617 18.392 25.2162 18.4187 25.1879C18.477 25.1261 18.5261 25.0591 18.5677 24.9887C18.5966 24.9855 18.6247 24.9817 18.6536 24.9788V28.972H18.6535ZM28.3224 28.972H26.2015C25.6644 27.8165 25.074 26.8162 24.5339 26.0034C26.0045 26.7073 27.2967 27.726 28.3224 28.972ZM20.8774 24.979C20.9059 24.9819 20.9344 24.9857 20.963 24.9889C21.0049 25.0595 21.0542 25.1269 21.1131 25.189C21.1317 25.2087 22.4806 26.6472 23.7168 28.9721H20.8774V24.979ZM20.8774 31.1958H24.7242C24.8271 31.4697 24.9259 31.7499 25.0174 32.0374C25.3243 33.0018 25.5318 33.9533 25.6434 34.8916H20.8774V31.1958ZM20.8774 37.1155H25.7244C25.6642 38.3747 25.4207 39.6072 24.9937 40.8112H20.8774V37.1155ZM21.1199 46.8109C21.0581 46.8748 21.0067 46.9448 20.9636 47.0181C20.9347 47.0212 20.9063 47.0252 20.8774 47.0281V43.0351H23.9785C23.2504 44.3315 22.2983 45.5911 21.1199 46.8109ZM26.472 43.035H28.3223C27.3595 44.2041 26.1611 45.1708 24.8022 45.8677M29.7474 40.8111H27.321C27.7002 39.5357 27.8891 38.2968 27.9388 37.1153H30.7903C30.6586 38.4277 30.2977 39.6731 29.7474 40.8111ZM30.7901 34.8916H27.8735C27.7453 33.6065 27.4724 32.419 27.1366 31.3631C27.1187 31.3069 27.0994 31.2518 27.081 31.1958H29.7473C30.2977 32.3335 30.6586 33.5792 30.7901 34.8916Z" fill="#FD8F02"></path><path d="M41.5215 6.22266C41.5221 6.2584 41.5224 6.29779 41.5228 6.33592C41.5223 6.29779 41.522 6.2584 41.5215 6.22266Z" fill="#0F314C"></path><path d="M41.5352 8.03906C41.5355 8.11801 41.5358 8.19886 41.5364 8.28083C41.5358 8.19886 41.5355 8.11785 41.5352 8.03906Z" fill="#0F314C"></path><path d="M41.5293 6.875C41.5296 6.9433 41.5303 7.01463 41.5309 7.08738C41.5301 7.01479 41.5296 6.94315 41.5293 6.875Z" fill="#0F314C"></path><path d="M43.7434 6.01327C43.7118 3.82069 43.0214 2.18217 41.6917 1.14346C39.658 -0.445017 36.8872 0.0548781 36.4491 0.146851L3.0546 4.99601C1.63545 5.06098 0.5 6.23232 0.5 7.66704V56.3227C0.5 57.799 1.70137 59.0001 3.1777 59.0001H36.3531C37.8296 59.0001 39.0305 57.799 39.0305 56.3227V55.7188H40.9454C40.948 55.7188 40.9504 55.7188 40.9529 55.7188C41.1691 55.7188 42.0388 55.6701 42.7828 54.9379C43.4219 54.3091 43.7459 53.4005 43.7459 52.2374C43.7459 50.3456 43.7505 46.7136 43.7559 42.2745C43.772 29.2936 43.7961 9.67678 43.7434 6.01327ZM36.8068 56.3227C36.8068 56.5727 36.6033 56.7762 36.3533 56.7762H3.17786C2.92752 56.7762 2.72403 56.5729 2.72403 56.3227V7.66704C2.72403 7.41701 2.92752 7.21369 3.17786 7.21369H36.3533C36.6033 7.21369 36.8068 7.41717 36.8068 7.66704V56.3227ZM41.5221 52.2374C41.5221 53.0045 41.3079 53.4622 40.9342 53.4949H39.0308V7.66704C39.0308 6.1907 37.8299 4.98965 36.3535 4.98965H30.6063H18.5733L36.8071 2.34197C36.8357 2.33784 36.8686 2.33149 36.8965 2.32514C36.9177 2.32037 39.0118 1.8632 40.331 2.90239C41.0986 3.50712 41.4985 4.56442 41.5198 6.0452C41.5205 6.10064 41.5214 6.15989 41.5221 6.22247C41.5227 6.25821 41.523 6.29761 41.5233 6.33573C41.5236 6.36433 41.524 6.39133 41.5243 6.42119C41.5249 6.46456 41.5252 6.51142 41.5259 6.55748C41.5262 6.58576 41.5265 6.6126 41.5265 6.64167C41.5271 6.69425 41.5275 6.75001 41.5281 6.8056C41.5281 6.81307 41.5281 6.82038 41.5281 6.82816C41.5284 6.84405 41.5284 6.85898 41.5287 6.87486C41.529 6.94301 41.5297 7.01465 41.5303 7.08724C41.5303 7.10376 41.5306 7.11949 41.5306 7.13633C41.5309 7.19955 41.5316 7.26563 41.5319 7.33219C41.5322 7.36284 41.5322 7.39287 41.5325 7.42432C41.5329 7.49469 41.5335 7.56776 41.5338 7.64162C41.5341 7.66704 41.5341 7.69182 41.5344 7.71771C41.5348 7.7903 41.5351 7.86528 41.5354 7.94089C41.5357 7.97362 41.5357 8.00602 41.536 8.03938C41.5363 8.11817 41.5367 8.19918 41.5373 8.28115C41.5373 8.31244 41.5373 8.34357 41.5376 8.37518C41.5379 8.4527 41.5383 8.53181 41.5386 8.61203C41.5389 8.6565 41.5389 8.70114 41.5392 8.74657C41.5395 8.81885 41.5398 8.89255 41.5398 8.96689C41.5402 9.01979 41.5405 9.07284 41.5405 9.12669C41.5408 9.19532 41.5411 9.26473 41.5414 9.3351C41.5414 9.39959 41.5418 9.46472 41.5421 9.53064C41.5421 9.59688 41.5424 9.66392 41.5427 9.73159C41.5427 9.81308 41.543 9.89504 41.5433 9.97844C41.5433 10.0223 41.5437 10.0661 41.5437 10.1104C41.544 10.2065 41.5443 10.3042 41.5443 10.4027C41.5446 10.4612 41.5446 10.5199 41.5449 10.5792C41.5449 10.6604 41.5452 10.7428 41.5456 10.8257C41.5456 10.8877 41.5456 10.9495 41.5459 11.0124C41.5462 11.1355 41.5465 11.26 41.5465 11.3863C41.5465 11.4016 41.5465 11.4165 41.5468 11.4319C41.5611 19.0946 41.5446 32.5465 41.5325 42.2716C41.5267 46.7119 41.5221 50.3449 41.5221 52.2374Z" fill="#0F314C"></path></svg>