<svg xmlns="http://www.w3.org/2000/svg" width="56" height="57" viewBox="0 0 56 57" fill="none"><path d="M12.1 44.3991H10.3333C5.45557 44.3991 1.5 40.4435 1.5 35.5658C1.5 30.688 5.45557 26.7324 10.3333 26.7324H12.1V44.3991Z" stroke="#0F314C" stroke-width="2.5" stroke-miterlimit="10" stroke-linejoin="round"></path><path d="M45.6671 44.3991H43.9004V26.7324H45.6671C50.5448 26.7324 54.5004 30.688 54.5004 35.5658C54.5004 40.4435 50.5448 44.3991 45.6671 44.3991Z" stroke="#0F314C" stroke-width="2.5" stroke-miterlimit="10" stroke-linejoin="round"></path><path d="M8.56641 26.7333V21.4333C8.56641 10.7008 17.2672 2 27.9997 2C38.7322 2 47.4331 10.7008 47.4331 21.4333V26.7333" stroke="#0F314C" stroke-width="2.5" stroke-miterlimit="10" stroke-linejoin="round"></path><path d="M47.4329 44.4004V51.4671C47.4329 53.4192 45.8518 55.0004 43.8996 55.0004H38.5996" stroke="#0F314C" stroke-width="2.5" stroke-miterlimit="10" stroke-linejoin="round"></path><path d="M31.5332 55H35.0665" stroke="#0F314C" stroke-width="2.5" stroke-miterlimit="10" stroke-linejoin="round"></path><path d="M28 42.6328V46.1661" stroke="#FD8F02" stroke-width="2.5" stroke-miterlimit="10" stroke-linejoin="round"></path><path d="M27.9993 39.0996V34.4798C27.9993 31.934 29.5487 29.6462 31.9125 28.701C34.884 27.512 36.8327 24.6341 36.8327 21.4329C36.8327 16.5552 32.8771 12.5996 27.9993 12.5996C23.1216 12.5996 19.166 16.5552 19.166 21.4329" stroke="#FD8F02" stroke-width="2.5" stroke-miterlimit="10" stroke-linejoin="round"></path></svg>