<svg xmlns="http://www.w3.org/2000/svg" width="57" height="58" viewBox="0 0 57 58" fill="none"><g clip-path="url(#clip0_841_11432)"><path d="M11.0237 56.066C10.3035 56.066 9.71952 55.4612 9.71952 54.7152V49.7409H7.76026C7.04 49.7409 6.45604 49.1361 6.45604 48.3901C6.45604 47.6441 7.04 47.0393 7.76026 47.0393H10.995C11.0141 47.039 11.0334 47.039 11.0526 47.0393H53.6335C54.3538 47.0393 54.9377 47.6441 54.9377 48.3901C54.9377 49.1361 54.3538 49.7409 53.6335 49.7409H12.328V54.7152C12.328 55.4612 11.7442 56.066 11.0237 56.066ZM1.80406 49.7418C1.64087 49.7418 1.47474 49.7098 1.31416 49.6423C0.646729 49.3618 0.32524 48.574 0.596028 47.8827L4.14056 38.8349C5.70628 34.8393 8.51279 29.5273 14.7828 29.5273H19.4842C22.862 29.5273 25.643 31.0842 27.7498 34.1548C27.8059 34.2333 28.3677 34.9882 28.8633 35.6543C29.2203 36.1343 29.6039 36.6497 29.923 37.0794C30.362 37.6709 30.2549 38.5188 29.6838 38.9737C29.1127 39.4286 28.294 39.3175 27.855 38.726C27.5364 38.297 27.1536 37.7823 26.7971 37.3031C25.8427 36.0202 25.6668 35.783 25.6212 35.7161C24.6044 34.2341 23.4637 33.245 22.1301 32.7099L18.187 38.3063C17.9415 38.6546 17.5499 38.8608 17.1335 38.8608C16.7171 38.8608 16.3255 38.6546 16.08 38.3063L12.1369 32.7099C9.84978 33.6295 8.10376 35.9045 6.55744 39.8507L3.01307 48.8984C2.80749 49.4235 2.31939 49.7418 1.80406 49.7418ZM15.0272 32.229L17.1337 35.2187L19.2401 32.229H15.0272ZM55.196 33.2409C54.6806 33.2409 54.1925 32.9227 53.9869 32.3977L51.0564 24.917C49.8421 21.8183 48.483 19.9955 46.7286 19.2141L43.5749 23.6901C43.3294 24.0385 42.9379 24.2446 42.5214 24.2446C42.1049 24.2446 41.7134 24.0385 41.4679 23.6901L38.3129 19.2126C37.3181 19.6533 36.4583 20.4232 35.6857 21.5491C35.6064 21.6644 33.5036 24.5722 32.8351 25.4733C32.3963 26.065 31.5775 26.1759 31.0063 25.7216C30.4352 25.267 30.3279 24.4189 30.7668 23.8274C31.4336 22.9286 33.4599 20.1252 33.5665 19.9743C35.3462 17.3802 37.7074 16.0596 40.5776 16.0596H44.4649C49.7854 16.0596 52.1544 20.5348 53.4736 23.901L56.4041 31.3819C56.6749 32.0732 56.3534 32.861 55.686 33.1415C55.5253 33.2089 55.3591 33.2409 55.196 33.2409ZM41.224 18.7612L42.5214 20.6022L43.8186 18.7612H41.224ZM17.1337 27.1294C13.2248 27.1294 10.0448 23.8357 10.0448 19.7872C10.0448 16.4536 12.2013 13.6316 15.1451 12.739C15.1602 12.734 15.1757 12.7291 15.1912 12.7245C15.5463 12.62 15.9088 12.5445 16.2755 12.4986C16.5041 12.4699 16.7364 12.4525 16.9711 12.4469C16.9739 12.4451 16.976 12.4468 16.9786 12.4466C16.9811 12.4464 16.9837 12.4466 16.986 12.4464C16.9881 12.4464 16.9904 12.4464 16.9925 12.4464C16.9925 12.4464 16.9959 12.4463 16.9982 12.4463C17.0399 12.4454 17.0826 12.4442 17.1236 12.4449C17.1262 12.4447 17.1291 12.4447 17.1324 12.4449H17.1338H17.1389C17.1425 12.4449 17.1459 12.4449 17.1495 12.4449H17.155H17.1606H17.1664L17.1726 12.4451C17.1748 12.4451 17.177 12.4451 17.1792 12.4451C20.7881 12.4687 23.7765 15.2541 24.1779 18.9586C24.2076 19.2305 24.2227 19.507 24.2227 19.787C24.2224 23.8358 21.0424 27.1294 17.1337 27.1294ZM14.6361 15.936C13.4406 16.7703 12.653 18.1851 12.653 19.7872C12.653 22.3461 14.663 24.4278 17.1335 24.4278C19.2799 24.4278 21.0784 22.8567 21.5136 20.7663C21.4436 20.7685 21.3735 20.7695 21.3034 20.7695C18.2454 20.7695 15.6258 18.7861 14.6361 15.936ZM17.1374 15.1467C17.7956 16.8737 19.4133 18.0646 21.2953 18.0681C20.6396 16.3713 19.0432 15.1658 17.1778 15.1468C17.1757 15.1468 17.1734 15.1468 17.1713 15.1468C17.1713 15.1468 17.1673 15.147 17.165 15.1468C17.165 15.1468 17.1607 15.1465 17.1584 15.1467C17.1563 15.1467 17.1542 15.1467 17.1521 15.1467C17.1498 15.1467 17.1477 15.1467 17.1456 15.1467C17.143 15.1465 17.1404 15.1465 17.1374 15.1467ZM42.5214 14.5449C39.165 14.5449 36.4343 11.7167 36.4343 8.24039C36.4343 4.76395 39.165 1.93555 42.5214 1.93555C45.878 1.93555 48.6087 4.76395 48.6087 8.24039C48.6087 11.7167 45.8778 14.5449 42.5214 14.5449ZM42.5214 4.63714C40.6032 4.63714 39.0427 6.25354 39.0427 8.24039C39.0427 10.2271 40.6032 11.8433 42.5214 11.8433C44.4397 11.8433 46.0002 10.2271 46.0002 8.24039C46.0002 6.25371 44.4396 4.63714 42.5214 4.63714Z" fill="#0F314C"></path><path d="M29.3799 30.5017H49.002C49.7223 30.5017 50.3062 29.8969 50.3062 29.1509C50.3062 28.4049 49.7223 27.8001 49.002 27.8001H29.3799C28.6596 27.8001 28.0757 28.4049 28.0757 29.1509C28.0757 29.8969 28.6596 30.5017 29.3799 30.5017Z" fill="#FD8F02"></path><path d="M22.9429 44.4733H37.2785C37.9989 44.4733 38.5827 43.8685 38.5827 43.1225C38.5827 42.3765 37.9988 41.7717 37.2785 41.7717H22.9429C22.2226 41.7717 21.6387 42.3765 21.6387 43.1225C21.6387 43.8685 22.2226 44.4733 22.9429 44.4733Z" fill="#FD8F02"></path></g><defs><clipPath id="clip0_841_11432"><rect width="56" height="58" fill="white" transform="translate(0.5)"></rect></clipPath></defs></svg>