<svg xmlns="http://www.w3.org/2000/svg" width="57" height="54" viewBox="0 0 57 54" fill="none"><path d="M21.8749 45.5727L13.9249 52.2832V40.2043H5.87306C4.84584 40.2043 3.86075 39.7909 3.13438 39.0551C2.40804 38.3194 2 37.3217 2 36.2813V5.20628C2 4.16581 2.40804 3.16797 3.13438 2.43223C3.86075 1.69652 4.84584 1.2832 5.87306 1.2832H48.4768C49.5039 1.2832 50.4889 1.69652 51.2153 2.43223C51.9417 3.16797 52.3498 4.16581 52.3498 5.20628V16.8836M55 52.1806C53.7193 50.559 51.8099 49.2027 49.4761 48.2574C47.1422 47.3117 44.4715 46.8122 41.75 46.8122C39.0284 46.8122 36.3577 47.3117 34.0239 48.2574C31.69 49.2027 29.7807 50.559 28.4999 52.1806M41.75 44.128C47.6041 44.128 52.35 39.3209 52.35 33.3912C52.35 27.4616 47.6041 22.6545 41.75 22.6545C35.8958 22.6545 31.15 27.4616 31.15 33.3912C31.15 39.3209 35.8958 44.128 41.75 44.128Z" stroke="#0F314C" stroke-width="2.5" stroke-linecap="round" stroke-linejoin="round"></path></svg>