<svg xmlns="http://www.w3.org/2000/svg" width="65" height="69" viewBox="0 0 65 69" fill="none"><path d="M32.5158 36.6511C24.6014 36.6511 16.6858 36.6499 8.77141 36.6535C7.95078 36.6535 7.13718 36.5956 6.33179 36.4481C5.3529 36.2687 4.4162 35.9572 3.55102 35.4579C2.3318 34.7534 1.41387 33.7632 0.81598 32.4792C0.264985 31.2978 0.0117618 30.0444 0.0105894 28.7462C0.00121079 22.2883 0.00238355 15.8315 3.88921e-05 9.3735C3.88921e-05 8.93919 -0.00113501 8.50488 0.00941596 8.07175C0.0340349 7.11934 0.157129 6.18109 0.452557 5.27117C1.01528 3.53984 2.07037 2.20033 3.61785 1.26444C4.28256 0.862001 5.00589 0.587018 5.75735 0.388747C6.79838 0.113764 7.85817 0.013449 8.92968 0.013449C13.17 0.00990846 17.4103 0.00400732 21.6506 0.00400732C23.9953 0.00400732 26.34 0.0158085 28.6846 0.0217094C32.898 0.032331 37.1113 0.0913407 41.3235 0.0405928C45.177 -0.00661464 49.0292 0.0205288 52.8815 0.00282598C54.0679 -0.00307494 55.2531 -0.000714646 56.4395 0.0193485C57.6576 0.0405918 58.8557 0.210538 60.0058 0.638946C61.1699 1.07207 62.2027 1.71646 63.0327 2.65352C63.7291 3.43953 64.2226 4.34709 64.531 5.35733C64.8182 6.29911 64.9436 7.26215 64.946 8.24524C64.9495 10.1713 64.953 12.0985 64.9612 14.0246C64.9624 14.3043 64.9964 14.584 64.9952 14.8637C64.9929 15.3877 64.9647 15.9117 64.9659 16.4357C64.9671 17.0506 64.9964 17.6643 64.9999 18.2792C65.0022 18.6497 64.9659 19.0191 64.9671 19.3897C64.9717 20.8897 64.9952 22.3909 64.9905 23.891C64.9858 25.5999 64.9753 27.3088 64.9378 29.0165C64.9061 30.4953 64.5814 31.9009 63.783 33.1684C63.0362 34.3557 62.0163 35.2207 60.7514 35.8096C59.7678 36.2676 58.735 36.5154 57.6599 36.5909C57.1851 36.624 56.7103 36.6511 56.2344 36.6511C48.327 36.6511 40.422 36.6499 32.5158 36.6511ZM6.38103 25.1962C6.38103 26.4933 6.35993 27.435 6.38807 28.3745C6.40799 29.0708 6.62839 29.6963 7.16649 30.1872C7.46544 30.4599 7.81596 30.605 8.18642 30.7089C8.62722 30.8316 9.08091 30.8895 9.54163 30.8871C10.027 30.8847 10.5123 30.8871 10.9965 30.8871C11.5698 30.8871 12.1442 30.8281 12.714 30.8257C18.1489 30.8092 23.5838 30.8163 29.0199 30.8163C36.1441 30.8163 43.2684 30.8116 50.3927 30.821C51.4149 30.8222 52.436 30.808 53.4595 30.867C54.4489 30.9237 55.4501 30.9591 56.443 30.8186C56.8874 30.7549 57.3082 30.6109 57.6799 30.3832C58.0515 30.1554 58.2965 29.7919 58.4149 29.3505C58.5521 28.8395 58.6142 28.3261 58.6025 27.7962C58.5697 26.2513 58.5228 24.7053 58.5298 23.1592C58.5486 19.5431 58.4536 15.9259 58.5849 12.311C58.6283 11.1095 58.5908 9.90576 58.6037 8.70315C58.6072 8.32667 58.5521 7.96317 58.4407 7.60912C58.2684 7.06033 57.9401 6.64609 57.4137 6.38527C56.8815 6.12091 56.3117 6.04183 55.7408 6.03829C53.9894 6.02649 52.2379 6.056 50.4864 6.0619C45.9683 6.07724 41.4501 6.09494 36.932 6.0973C33.8605 6.09848 30.7878 6.07134 27.7163 6.06662C23.5568 6.06072 19.3974 6.06544 15.238 6.0619C14.4478 6.06072 13.6577 6.02531 12.8675 6.03711C11.4408 6.05836 10.0129 5.94624 8.58736 6.10202C8.24504 6.13979 7.91327 6.2165 7.60494 6.37111C7.10319 6.62248 6.73507 7.0025 6.54164 7.54067C6.42792 7.85814 6.37165 8.18505 6.37634 8.52376C6.40448 10.2492 6.32359 11.977 6.45489 13.7012C6.44199 16.7213 6.43261 19.7414 6.4162 22.7615C6.41268 23.6903 6.39041 24.6215 6.38103 25.1962Z" fill="#0F314C"></path><path d="M5.09414 55.0622C5.15627 55.0622 5.20903 55.0622 5.26061 55.0622C6.79637 55.0622 8.33329 55.0563 9.86904 55.0669C10.1527 55.0693 10.4435 55.1094 10.7202 55.1755C11.5244 55.3679 12.0121 55.893 12.1867 56.6979C12.2536 57.0048 12.2747 57.3246 12.2817 57.6385C12.2958 58.2983 12.2794 58.9592 12.2876 59.6189C12.2969 60.3282 12.066 60.9289 11.5361 61.4045C11.5162 61.4222 11.4998 61.4434 11.4833 61.4647C11.4775 61.4718 11.4763 61.4812 11.4529 61.5343C11.488 61.5579 11.5455 61.5862 11.59 61.6287C12.0484 62.0583 12.2817 62.5906 12.284 63.2196C12.2887 64.3231 12.2899 65.4266 12.2817 66.53C12.2805 66.7637 12.2512 66.9997 12.2043 67.2287C12.0097 68.1953 11.4071 68.7677 10.4411 68.9069C10.2196 68.9388 9.99448 68.96 9.77057 68.96C8.26178 68.9648 6.75181 68.9624 5.24302 68.9624C5.19848 68.9624 5.1551 68.9589 5.0918 68.9553C5.09414 64.3337 5.09414 59.7168 5.09414 55.0622ZM7.44349 66.5855C7.99214 66.5855 8.52907 66.5985 9.06365 66.582C9.62637 66.5643 9.91711 66.2598 9.92649 65.6909C9.93704 65.0772 9.94172 64.4624 9.9218 63.8487C9.91476 63.6197 9.8538 63.3837 9.77291 63.1677C9.65568 62.8526 9.39777 62.6791 9.066 62.6697C8.53727 62.6543 8.00738 62.6649 7.47866 62.6673C7.46459 62.6673 7.4517 62.6885 7.44232 62.6956C7.44349 63.9879 7.44349 65.2767 7.44349 66.5855ZM7.44466 60.2349C7.95228 60.2349 8.43528 60.2385 8.91945 60.2338C9.48569 60.229 9.79284 59.9906 9.88077 59.4194C9.93704 59.0571 9.93117 58.6818 9.92531 58.3124C9.91711 57.7813 9.6463 57.4804 9.1211 57.4485C8.58417 57.4166 8.0449 57.4296 7.5068 57.4249C7.49156 57.4249 7.47515 57.4403 7.44466 57.4544C7.44466 58.3667 7.44466 59.2849 7.44466 60.2349Z" fill="#0F314C"></path><path d="M55.0403 63.697C54.7285 63.697 54.4518 63.697 54.1493 63.697C54.1493 65.4496 54.1493 67.1904 54.1493 68.95C53.365 68.95 52.6066 68.95 51.8281 68.95C51.8281 64.3355 51.8281 59.7198 51.8281 55.084C51.8891 55.0781 51.9571 55.064 52.0251 55.064C53.6054 55.0628 55.1869 55.0604 56.7672 55.0663C57.0169 55.0675 57.2713 55.0911 57.5151 55.1419C58.4307 55.3307 59.004 55.9562 59.1388 56.9003C59.1704 57.1234 59.1892 57.35 59.1904 57.5754C59.195 58.7875 59.1997 59.9983 59.188 61.2104C59.1845 61.5149 59.1493 61.8264 59.0766 62.1215C58.8973 62.8567 58.4366 63.3371 57.7062 63.546C57.637 63.566 57.569 63.5873 57.501 63.6097C57.4928 63.6121 57.487 63.6203 57.4577 63.6439C58.1517 65.4118 58.8492 67.1868 59.5585 68.9925C58.7144 68.9925 57.9113 68.9925 57.0813 68.9925C56.4061 67.2364 55.7238 65.4708 55.0403 63.697ZM54.1845 61.3142C54.8082 61.3142 55.4073 61.326 56.0063 61.3095C56.3393 61.3001 56.589 61.116 56.705 60.8009C56.7765 60.6108 56.8234 60.3996 56.8281 60.1978C56.8434 59.5758 56.841 58.9527 56.8316 58.3295C56.8234 57.7819 56.5608 57.481 56.018 57.4515C55.4283 57.4184 54.8363 57.4326 54.2443 57.4279C54.2291 57.4279 54.2126 57.4432 54.1822 57.4586C54.1845 58.7284 54.1845 60.0054 54.1845 61.3142Z" fill="#FE9003"></path><path d="M22.1269 68.9997C21.1703 68.9997 20.257 68.9997 19.3051 68.9997C18.413 67.3605 17.5103 65.7023 16.6076 64.0442C16.5923 64.0465 16.5771 64.0501 16.5619 64.0524C16.5619 65.6799 16.5619 67.3062 16.5619 68.9502C15.7096 68.9502 14.8878 68.9502 14.0624 68.9502C14.012 68.7779 13.9945 55.4099 14.0496 55.0547C14.8702 55.0547 15.6932 55.0547 16.5443 55.0547C16.5443 56.8911 16.5443 58.7192 16.5443 60.5473C16.563 60.552 16.583 60.5579 16.6017 60.5626C17.5267 58.7439 18.4517 56.9253 19.3813 55.0995C20.2735 55.0995 21.1586 55.0995 22.0871 55.0995C22.039 55.201 22.0015 55.2872 21.9581 55.3686C20.7951 57.5697 19.6345 59.7719 18.4646 61.9682C18.359 62.1653 18.352 62.3069 18.4657 62.5064C19.6381 64.5682 20.7998 66.6358 21.964 68.7023C22.012 68.7873 22.0577 68.8747 22.1269 68.9997Z" fill="#0F304C"></path><path d="M44.3873 55.1055C45.2115 55.1055 46.0087 55.1055 46.8363 55.1055C48.0309 59.7153 49.2255 64.3227 50.4248 68.9502C49.5198 68.9502 48.6429 68.9502 47.739 68.9502C47.5327 68.0792 47.3252 67.2035 47.1142 66.316C46.106 66.316 45.1036 66.316 44.0696 66.316C43.8539 67.187 43.6347 68.0674 43.4155 68.9526C42.5456 68.9526 41.6957 68.9526 40.8164 68.9526C42.0063 64.3345 43.1939 59.7318 44.3873 55.1055ZM46.5854 64.0206C46.2701 62.6752 45.9618 61.3569 45.6523 60.0375C45.6335 60.0351 45.6148 60.0339 45.596 60.0316C45.2724 61.3545 44.9477 62.6775 44.6194 64.0206C45.2818 64.0206 45.9149 64.0206 46.5854 64.0206Z" fill="#FE9003"></path><path d="M31.2346 59.124C30.4691 59.124 29.7094 59.124 28.9157 59.124C28.9157 58.8986 28.9099 58.6838 28.9169 58.4701C28.9427 57.716 28.5945 57.4304 27.8982 57.4174C27.5852 57.4115 27.2686 57.4162 26.958 57.454C26.5324 57.5059 26.285 57.788 26.2581 58.2164C26.2428 58.4595 26.2487 58.7038 26.251 58.9481C26.2546 59.2703 26.3718 59.5571 26.5969 59.7778C26.788 59.9654 27.0013 60.1377 27.2299 60.2758C27.6801 60.5473 28.1784 60.6972 28.6871 60.8223C28.9908 60.8966 29.2968 60.9816 29.5828 61.1055C30.5242 61.5162 31.0541 62.2574 31.2194 63.2676C31.2534 63.4718 31.2733 63.6807 31.2745 63.8872C31.2803 64.7912 31.2803 65.6952 31.2721 66.5993C31.2698 66.8152 31.2463 67.0336 31.203 67.2448C31.0095 68.1878 30.3999 68.7661 29.4503 68.9065C29.2206 68.9407 28.9861 68.9596 28.754 68.962C27.9732 68.9691 27.1912 68.9738 26.4105 68.9596C26.1162 68.9549 25.8173 68.9254 25.5312 68.8605C24.6309 68.6575 24.0846 68.0509 23.9498 67.128C23.9146 66.8872 23.8993 66.6429 23.8958 66.3998C23.8876 65.8959 23.8935 65.3907 23.8935 64.8703C24.6778 64.8703 25.4386 64.8703 26.2217 64.8703C26.2299 64.9352 26.244 65.0025 26.2464 65.0709C26.2522 65.3058 26.2428 65.5418 26.2592 65.7755C26.2921 66.2511 26.5535 66.5355 27.0201 66.5686C27.3952 66.5945 27.7751 66.5945 28.1502 66.5686C28.6098 66.5367 28.8923 66.2334 28.9099 65.7719C28.9263 65.3199 28.9169 64.8679 28.9157 64.4159C28.9157 64.1893 28.8337 63.9828 28.6848 63.8223C28.5136 63.6405 28.3284 63.4635 28.1209 63.3266C27.6367 63.0056 27.0916 62.8203 26.5359 62.6669C26.1362 62.5571 25.7505 62.4167 25.3917 62.2007C24.5558 61.698 24.0963 60.9462 23.9498 59.9914C23.9087 59.7247 23.8958 59.4521 23.8923 59.1818C23.8853 58.5858 23.8829 57.9886 23.897 57.3915C23.9029 57.1495 23.938 56.9052 23.9908 56.6692C24.1854 55.81 24.7399 55.3155 25.5805 55.1361C25.7809 55.0936 25.9896 55.0689 26.1948 55.0677C27.1291 55.0606 28.0623 55.0606 28.9966 55.0689C29.21 55.0712 29.4269 55.1019 29.6356 55.1503C30.5511 55.3639 31.1303 55.9847 31.2159 56.9406C31.2803 57.6487 31.251 58.3651 31.2639 59.0791C31.2616 59.0862 31.2534 59.0933 31.2346 59.124Z" fill="#FE9003"></path><path d="M35.8089 57.3982C34.8617 57.3982 33.9578 57.3982 33.0352 57.3982C33.0352 56.6216 33.0352 55.8675 33.0352 55.1122C33.2157 55.0579 40.4033 55.0378 40.7866 55.0945C40.7866 55.8474 40.7866 56.6016 40.7866 57.3829C39.9074 57.3829 39.0328 57.3829 38.1184 57.3829C38.1113 57.7912 38.116 58.1759 38.1149 58.5607C38.1137 58.9407 38.1149 59.3195 38.1149 59.6996C38.1149 60.0878 38.1149 60.4773 38.1149 60.8656C38.1149 61.2456 38.1149 61.6244 38.1149 62.0045C38.1149 62.3927 38.1149 62.7822 38.1149 63.1705C38.1149 63.5588 38.1149 63.9482 38.1149 64.3365C38.1149 64.7165 38.1149 65.0954 38.1149 65.4754C38.1149 65.8637 38.1149 66.2531 38.1149 66.6414C38.1149 67.0214 38.1149 67.4003 38.1149 67.7803C38.1149 68.1662 38.1149 68.5533 38.1149 68.9534C37.3364 68.9534 36.5873 68.9534 35.8101 68.9534C35.8089 65.1142 35.8089 61.2775 35.8089 57.3982Z" fill="#FE9003"></path><path d="M18.4626 44.432C18.4626 42.9769 18.4579 41.5205 18.465 40.0654C18.4673 39.5791 18.5869 39.1188 18.8554 38.707C18.8847 38.6621 18.9316 38.6125 18.9304 38.5665C18.9245 38.347 19.0769 38.3128 19.2364 38.2609C19.5166 38.1712 19.7874 38.0685 20.0863 38.0213C20.5189 37.9516 20.8999 38.0838 21.2926 38.2018C21.3184 38.2101 21.3407 38.229 21.3665 38.2361C22.0558 38.4178 22.6666 38.7919 23.3266 39.0504C24.0523 39.3348 24.7522 39.6877 25.4673 40.0028C25.7451 40.1255 26.0359 40.22 26.3161 40.338C26.4954 40.4135 26.6666 40.5067 26.8413 40.5929C27.227 40.7853 27.6115 40.9776 27.996 41.1747C28.7076 41.5382 29.4169 41.9064 30.1297 42.2688C30.7158 42.5673 31.3149 42.827 31.9691 42.9356C32.6138 43.0418 33.2434 42.9792 33.8401 42.7208C34.4075 42.4741 34.9702 42.2086 35.5083 41.9053C36.0323 41.609 36.5904 41.3907 37.1273 41.124C37.506 40.9363 37.8858 40.7534 38.2703 40.5787C39.2035 40.1574 40.139 39.7432 41.0734 39.3254C41.5892 39.0941 42.1038 38.858 42.622 38.6338C43.0171 38.4627 43.418 38.3045 43.8166 38.1428C43.8741 38.1192 43.9374 38.1074 43.9983 38.1003C44.3184 38.0673 44.6384 38.0378 44.9585 38.0071C44.9843 38.0047 45.0147 38 45.0382 38.0083C45.3512 38.1216 45.6607 38.2408 45.8916 38.5004C46.207 38.8557 46.3606 39.277 46.4122 39.7455C46.4426 40.0229 46.5095 40.2955 46.5364 40.5728C46.5575 40.7935 46.5435 41.0166 46.5435 41.2396C46.5435 41.2939 46.5282 41.347 46.5282 41.4013C46.5259 41.9407 46.5106 42.4812 46.5282 43.0194C46.5528 43.7947 46.5165 44.5689 46.5259 45.3443C46.5317 45.801 46.5587 46.2578 46.5657 46.7145C46.5681 46.8668 46.5235 47.0202 46.5306 47.1712C46.5481 47.6115 46.5446 48.0517 46.5177 48.4907C46.4884 48.984 46.5024 49.4821 46.3653 49.9671C46.1847 50.6044 45.8225 51.0729 45.1613 51.2122C44.8612 51.2759 44.5317 51.2783 44.2293 51.224C43.8811 51.1614 43.547 51.0127 43.2117 50.8876C42.9596 50.7932 42.7146 50.6811 42.4684 50.5725C42.248 50.4746 42.0323 50.366 41.8119 50.2681C41.3688 50.0721 40.9221 49.8845 40.4813 49.685C40.2785 49.593 40.0863 49.4785 39.8858 49.3817C38.9163 48.9108 37.9456 48.4399 36.9726 47.9738C36.7791 47.8817 36.5728 47.8168 36.377 47.7283C36.2645 47.6775 36.166 47.5961 36.0558 47.5383C35.6924 47.3447 35.336 47.137 34.962 46.9694C34.4485 46.7381 33.9562 46.449 33.3899 46.3557C33.2844 46.338 33.1765 46.338 33.0699 46.3227C32.9468 46.305 32.826 46.2778 32.7029 46.259C32.5892 46.2424 32.4708 46.207 32.3594 46.2212C31.6478 46.3168 30.9491 46.4513 30.3102 46.8184C29.8436 47.0863 29.3489 47.3034 28.88 47.5666C28.5693 47.7413 28.2657 47.9195 27.9269 48.0458C27.5916 48.1709 27.2844 48.368 26.9597 48.5214C26.132 48.9132 25.2997 49.2968 24.4708 49.685C24.3571 49.7381 24.2516 49.809 24.1379 49.8597C23.8284 49.999 23.5166 50.1323 23.2059 50.2692C22.7639 50.4651 22.3278 50.6764 21.8788 50.8558C21.3114 51.0812 20.7334 51.27 20.1109 51.2724C19.615 51.2748 19.2434 51.0706 18.9351 50.6799C18.7112 50.3955 18.6526 50.0651 18.5752 49.7393C18.438 49.1646 18.4568 48.5745 18.4556 47.9879C18.4544 46.803 18.4556 45.6193 18.4556 44.4344C18.4591 44.432 18.4615 44.432 18.4626 44.432ZM18.601 44.4627H18.6021C18.6021 45.9368 18.601 47.4108 18.6033 48.8849C18.6033 49.01 18.6162 49.1374 18.642 49.2602C18.7112 49.5859 18.7745 49.914 18.8718 50.2303C18.9691 50.5466 19.1567 50.8239 19.4579 50.9726C19.8401 51.1614 20.2528 51.1556 20.6678 51.0883C21.3208 50.9832 21.9034 50.6776 22.5025 50.4227C23.2364 50.1099 23.9609 49.7747 24.6877 49.4443C25.1602 49.2295 25.6303 49.0088 26.0992 48.7881C26.3571 48.6677 26.6138 48.545 26.8682 48.4187C27.2141 48.2488 27.5576 48.0741 27.9022 47.903C28.2832 47.7129 28.6678 47.53 29.0441 47.3329C29.5212 47.0827 29.989 46.8148 30.4685 46.5693C30.6713 46.4655 30.8917 46.3935 31.1086 46.3227C31.2598 46.2731 31.4227 46.2625 31.5751 46.2165C32.0112 46.0831 32.4497 46.0371 32.8999 46.1256C33.1719 46.1787 33.4556 46.1905 33.7146 46.2802C34.2141 46.4525 34.7029 46.6484 35.1683 46.9116C35.7135 47.2208 36.2844 47.4852 36.8471 47.7625C37.5786 48.1225 38.3102 48.4824 39.0464 48.8306C39.622 49.102 40.207 49.3522 40.7838 49.619C41.2469 49.8326 41.7017 50.0662 42.1672 50.274C42.6912 50.5076 43.2211 50.7295 43.7545 50.9419C44.2562 51.1426 44.7603 51.2004 45.2949 51.0186C45.7123 50.877 45.9467 50.5725 46.1027 50.209C46.2469 49.8751 46.3735 49.5186 46.3324 49.1363C46.3277 49.0926 46.3465 49.0477 46.35 49.0029C46.3758 48.5804 46.4157 48.1579 46.4215 47.7342C46.4274 47.3306 46.3887 46.9269 46.3864 46.5233C46.3817 45.0587 46.384 43.5941 46.3864 42.1283C46.3864 41.9855 46.4204 41.8404 46.4133 41.6987C46.3899 41.2137 46.3559 40.7286 46.3266 40.2436C46.2914 39.6712 46.2023 39.1306 45.8248 38.6515C45.6021 38.3682 45.3278 38.2195 45.0194 38.1936C44.3875 38.1417 43.7709 38.2585 43.2023 38.5665C43.1707 38.583 43.139 38.6019 43.105 38.6078C42.6771 38.6834 42.309 38.91 41.921 39.0858C41.6361 39.2144 41.3536 39.3525 41.0675 39.4788C40.2809 39.827 39.4895 40.1657 38.7053 40.5197C38.1754 40.7593 37.6525 41.0154 37.1308 41.2727C36.3735 41.6444 35.6126 42.0091 34.8682 42.4045C34.2621 42.7255 33.6478 42.9981 32.9608 43.0913C32.5365 43.1492 32.1109 43.1386 31.7053 43.0394C31.2832 42.9367 30.8764 42.755 30.479 42.5732C30.023 42.3644 29.588 42.1094 29.1367 41.8876C28.4052 41.5276 27.6689 41.1747 26.9327 40.823C26.4556 40.5953 25.9761 40.3722 25.4943 40.1539C25.1344 39.9922 24.7674 39.8458 24.4063 39.6865C23.5119 39.2935 22.6209 38.8934 21.7252 38.5028C21.1848 38.2668 20.6186 38.1133 20.0265 38.1853C19.6361 38.2325 19.254 38.3175 19.0089 38.7117C18.7569 39.1165 18.6092 39.5437 18.6057 40.0099C18.5939 41.4969 18.601 42.9792 18.601 44.4627Z" fill="#EBBB7E"></path><path d="M6.38185 25.1968C6.39123 24.6221 6.4135 23.6909 6.41819 22.7597C6.4346 19.7397 6.44515 16.7196 6.45688 13.6995C6.32557 11.9752 6.40647 10.2474 6.37833 8.522C6.37247 8.1821 6.42874 7.85638 6.54363 7.53891C6.73706 7.00074 7.10517 6.62072 7.60693 6.36934C7.91525 6.21474 8.24702 6.13802 8.58934 6.10026C10.0137 5.94447 11.4428 6.05541 12.8695 6.03535C13.6597 6.02355 14.4498 6.06013 15.24 6.06013C19.3994 6.06367 23.5588 6.05895 27.7183 6.06485C30.7898 6.06957 33.8624 6.09672 36.9339 6.09554C41.4521 6.09318 45.9703 6.07547 50.4884 6.06013C52.2399 6.05423 53.9913 6.02473 55.7428 6.03653C56.3137 6.04007 56.8847 6.11914 57.4157 6.3835C57.9421 6.64432 58.2692 7.05857 58.4427 7.60735C58.5541 7.96141 58.6092 8.32491 58.6056 8.70138C58.5927 9.90399 58.6314 11.1078 58.5869 12.3092C58.4556 15.9253 58.5505 19.5414 58.5318 23.1575C58.5236 24.7023 58.5716 26.2484 58.6045 27.7944C58.6162 28.3231 58.5541 28.8377 58.4169 29.3487C58.2985 29.7913 58.0535 30.1536 57.6818 30.3814C57.3102 30.6092 56.8893 30.7531 56.445 30.8169C55.4521 30.9585 54.4509 30.9231 53.4614 30.8653C52.4368 30.8063 51.4157 30.8204 50.3946 30.8192C43.2704 30.811 36.1461 30.8145 29.0219 30.8145C23.587 30.8145 18.152 30.8074 12.7159 30.824C12.145 30.8263 11.5718 30.8853 10.9985 30.8853C10.5131 30.8853 10.0278 30.883 9.54362 30.8853C9.08407 30.8877 8.63038 30.8299 8.18841 30.7071C7.81678 30.6033 7.46625 30.4581 7.16848 30.1855C6.63155 29.6945 6.41116 29.0678 6.39006 28.3727C6.36192 27.4345 6.38185 26.4939 6.38185 25.1968ZM44.3138 20.1881C44.3138 20.1917 44.3138 20.194 44.3138 20.1976C45.0406 20.1976 45.7674 20.1976 46.4955 20.1976C48.1297 20.1976 49.7627 20.1976 51.397 20.1976C51.5588 20.1976 51.7205 20.1976 51.8812 20.1905C52.567 20.1598 53.2047 19.5969 53.3243 18.9714C53.4017 18.5654 53.3735 18.1606 53.3759 17.7558C53.3841 16.7904 52.5951 16.1236 51.7487 16.1236C51.5963 16.1236 51.4439 16.12 51.2903 16.12C47.744 16.1212 44.1977 16.1224 40.6514 16.1236C39.4123 16.1236 38.1731 16.12 36.9339 16.1271C36.0875 16.1318 35.3876 16.7975 35.3525 17.6283C35.3384 17.9717 35.3407 18.3152 35.3501 18.6586C35.3701 19.3644 35.9984 20.2035 36.907 20.1893C37.472 20.1799 38.0383 20.1881 38.6033 20.1881C40.5072 20.1881 42.4099 20.1881 44.3138 20.1881ZM20.4428 16.1248C19.1942 16.1248 17.9457 16.1248 16.6984 16.1248C15.4686 16.1236 14.2376 16.1165 13.0079 16.1236C12.0747 16.1283 11.4475 16.9013 11.4147 17.6236C11.3982 17.9847 11.41 18.347 11.4158 18.7082C11.424 19.1861 11.6503 19.5579 12.0102 19.8435C12.1614 19.9639 12.3443 20.0701 12.5284 20.115C12.7781 20.1763 13.0442 20.1917 13.3033 20.1928C14.5061 20.1976 15.7101 20.1881 16.9129 20.1881C18.5917 20.1881 20.2704 20.194 21.9504 20.1952C22.9293 20.1964 23.9082 20.1976 24.8859 20.1952C25.8648 20.194 26.8437 20.1846 27.8226 20.1881C28.8226 20.1905 29.4322 19.3809 29.4099 18.5961C29.4005 18.2526 29.4158 17.908 29.3947 17.5658C29.3712 17.2058 29.2435 16.8824 28.9855 16.6181C28.6432 16.2676 28.2224 16.1236 27.744 16.1236C25.3103 16.1236 22.8765 16.1248 20.4428 16.1248Z" fill="#FEFEFE"></path><path d="M7.44336 66.5853C7.44336 65.2764 7.44336 63.9877 7.44336 62.6954C7.45274 62.6883 7.46563 62.667 7.4797 62.667C8.00842 62.6659 8.53832 62.6552 9.06704 62.6694C9.39881 62.6788 9.65555 62.8523 9.77395 63.1674C9.85484 63.3834 9.91463 63.6194 9.92284 63.8484C9.94277 64.4621 9.93808 65.077 9.92753 65.6907C9.91815 66.2607 9.62741 66.5652 9.06469 66.5817C8.52894 66.5982 7.99318 66.5853 7.44336 66.5853Z" fill="#FEFEFE"></path><path d="M7.44336 60.2346C7.44336 59.2846 7.44336 58.3664 7.44336 57.4553C7.47384 57.4399 7.48908 57.4258 7.50549 57.4258C8.04359 57.4305 8.58286 57.4175 9.11979 57.4494C9.64499 57.4801 9.9158 57.7822 9.92401 58.3133C9.92987 58.6827 9.93573 59.058 9.87946 59.4203C9.79154 59.9915 9.48438 60.2299 8.91815 60.2346C8.43398 60.2382 7.95098 60.2346 7.44336 60.2346Z" fill="#FDFDFD"></path><path d="M54.1855 61.3133C54.1855 60.0057 54.1855 58.7275 54.1855 57.4565C54.216 57.4411 54.2313 57.4258 54.2477 57.4258C54.8385 57.4305 55.4317 57.4175 56.0214 57.4494C56.5642 57.4789 56.8268 57.7798 56.835 58.3274C56.8432 58.9506 56.8467 59.5737 56.8315 60.1957C56.8268 60.3987 56.7787 60.6087 56.7084 60.7988C56.5912 61.1127 56.3415 61.298 56.0097 61.3074C55.4083 61.3251 54.8092 61.3133 54.1855 61.3133Z" fill="#FFFEFE"></path><path d="M46.5851 64.0203C45.9146 64.0203 45.2815 64.0203 44.6191 64.0203C44.9486 62.6772 45.2721 61.3542 45.5957 60.0312C45.6145 60.0336 45.6332 60.0348 45.652 60.0371C45.9615 61.3554 46.2698 62.6749 46.5851 64.0203Z" fill="#FFFDFB"></path><path d="M18.5997 44.4636C18.5997 42.9801 18.5927 41.4978 18.6044 40.0143C18.608 39.5481 18.7568 39.1209 19.0077 38.7161C19.2527 38.3219 19.6361 38.237 20.0253 38.1897C20.6173 38.1178 21.1824 38.2712 21.724 38.5072C22.6197 38.8979 23.5106 39.2979 24.4051 39.6909C24.7662 39.8503 25.1331 39.9954 25.493 40.1583C25.9749 40.3755 26.4544 40.5997 26.9315 40.8275C27.6677 41.1792 28.4039 41.5309 29.1355 41.892C29.5857 42.1139 30.0218 42.3688 30.4778 42.5777C30.8752 42.7594 31.2832 42.9412 31.7041 43.0439C32.1085 43.143 32.5352 43.1536 32.9596 43.0958C33.6454 43.0025 34.2609 42.7299 34.867 42.4089C35.6126 42.0147 36.3734 41.6489 37.1296 41.2771C37.6513 41.021 38.1741 40.7637 38.704 40.5242C39.4883 40.1701 40.2796 39.8314 41.0663 39.4832C41.3523 39.357 41.6349 39.2189 41.9197 39.0902C42.3078 38.9144 42.6759 38.6878 43.1038 38.6123C43.1378 38.6064 43.1706 38.5875 43.2011 38.571C43.7697 38.2629 44.3863 38.1461 45.0182 38.198C45.3277 38.2228 45.6009 38.3727 45.8236 38.6559C46.2011 39.1351 46.2902 39.6756 46.3254 40.248C46.3547 40.733 46.3898 41.2181 46.4121 41.7032C46.4191 41.846 46.3851 41.9899 46.3851 42.1328C46.3828 43.5974 46.3805 45.062 46.3851 46.5278C46.3863 46.9314 46.4262 47.335 46.4203 47.7386C46.4145 48.1611 46.3746 48.5836 46.3488 49.0073C46.3465 49.0522 46.3277 49.097 46.3312 49.1407C46.3711 49.5243 46.2456 49.8795 46.1014 50.2135C45.9455 50.577 45.7111 50.8815 45.2937 51.0231C44.7591 51.2037 44.255 51.1458 43.7533 50.9464C43.2199 50.7339 42.69 50.5121 42.1659 50.2784C41.6993 50.0707 41.2457 49.837 40.7826 49.6234C40.2046 49.3567 39.6196 49.1065 39.0452 48.835C38.309 48.4869 37.5774 48.1269 36.8459 47.767C36.2832 47.4896 35.7123 47.2252 35.1671 46.916C34.7029 46.6529 34.2128 46.4569 33.7134 46.2846C33.4543 46.1949 33.1706 46.1843 32.8987 46.13C32.4485 46.0415 32.01 46.0876 31.5739 46.2209C31.4215 46.2669 31.2586 46.2787 31.1073 46.3271C30.8905 46.3979 30.6701 46.4699 30.4672 46.5738C29.9878 46.8193 29.52 47.0872 29.0429 47.3374C28.6665 47.5345 28.282 47.7174 27.901 47.9074C27.5564 48.0797 27.2129 48.2532 26.867 48.4231C26.6115 48.5482 26.3547 48.6722 26.098 48.7925C25.6279 49.0132 25.1589 49.2339 24.6865 49.4487C23.9596 49.7792 23.2351 50.1143 22.5013 50.4271C21.9034 50.682 21.3207 50.9877 20.6666 51.0927C20.2527 51.1588 19.8389 51.1659 19.4567 50.9771C19.1554 50.8284 18.9679 50.5522 18.8706 50.2347C18.7733 49.9172 18.7099 49.5892 18.6408 49.2646C18.615 49.1419 18.6021 49.0144 18.6021 48.8893C18.5997 47.4153 18.6009 45.9412 18.6009 44.4672C18.6009 44.4636 18.5997 44.4636 18.5997 44.4636Z" fill="#FD8F02"></path><path d="M44.3123 20.1872C42.4096 20.1872 40.5058 20.1872 38.6031 20.1872C38.038 20.1872 37.4718 20.1802 36.9067 20.1884C35.9982 20.2026 35.3698 19.3635 35.3499 18.6577C35.3405 18.3143 35.337 17.9709 35.3522 17.6274C35.3874 16.7966 36.0873 16.1309 36.9337 16.1262C38.1728 16.1191 39.412 16.1239 40.6511 16.1227C44.1974 16.1215 47.7437 16.1203 51.29 16.1191C51.4424 16.1191 51.5948 16.1227 51.7484 16.1227C52.5948 16.1227 53.3838 16.7895 53.3756 17.7549C53.3721 18.1597 53.4014 18.5633 53.324 18.9705C53.2045 19.596 52.5667 20.1577 51.8809 20.1896C51.7191 20.1967 51.5573 20.1967 51.3967 20.1967C49.7625 20.1967 48.1294 20.1967 46.4952 20.1967C45.7684 20.1967 45.0415 20.1967 44.3135 20.1967C44.3123 20.1931 44.3123 20.1908 44.3123 20.1872Z" fill="#11324D"></path><path d="M20.4408 16.124C22.8746 16.124 25.3083 16.124 27.7421 16.124C28.2192 16.124 28.6413 16.2679 28.9836 16.6185C29.2415 16.8828 29.3693 17.2074 29.3927 17.5661C29.415 17.9084 29.3986 18.253 29.408 18.5964C29.4302 19.3813 28.8206 20.1909 27.8206 20.1885C26.8417 20.1862 25.8628 20.1944 24.8839 20.1956C23.905 20.1968 22.9261 20.1968 21.9484 20.1956C20.2696 20.1932 18.5909 20.1885 16.9109 20.1885C15.7081 20.1885 14.5041 20.198 13.3013 20.1932C13.0422 20.1921 12.7761 20.1755 12.5264 20.1153C12.3412 20.0705 12.1595 19.9643 12.0082 19.8439C11.6483 19.5583 11.4221 19.1865 11.4139 18.7086C11.408 18.3474 11.3963 17.9851 11.4127 17.624C11.4455 16.9017 12.0727 16.1287 13.0059 16.124C14.2357 16.1169 15.4666 16.1251 16.6964 16.1251C17.9449 16.124 19.1923 16.124 20.4408 16.124Z" fill="#11324D"></path></svg>